<?xml version="1.0" encoding="UTF-8" standalone="no"?>
<!DOCTYPE svg PUBLIC "-//W3C//DTD SVG 1.1//EN" "http://www.w3.org/Graphics/SVG/1.1/DTD/svg11.dtd">
<svg xmlns="http://www.w3.org/2000/svg" version="1.1" viewBox="0.00 0.00 949.00 441.00">
<path fill="#feffff" d="
  M 201.93 48.94
  Q 203.31 48.94 204.65 49.48
  Q 231.61 60.45 253.05 67.46
  Q 313.77 87.31 355.58 101.03
  A 1.06 1.06 0.0 0 1 356.31 102.04
  Q 356.52 219.29 356.41 229.25
  C 356.07 260.89 343.95 287.44 324.67 312.19
  Q 312.59 327.70 295.53 342.26
  Q 273.16 361.34 251.49 374.75
  Q 229.52 388.34 204.94 400.35
  Q 203.44 401.08 202.23 401.08
  Q 201.01 401.08 199.51 400.35
  Q 174.91 388.39 152.92 374.83
  Q 131.22 361.46 108.82 342.42
  Q 91.74 327.89 79.63 312.40
  C 60.31 287.68 48.14 261.15 47.75 229.51
  Q 47.62 219.55 47.63 102.30
  A 1.06 1.06 0.0 0 1 48.36 101.29
  Q 90.15 87.50 150.84 67.55
  Q 172.26 60.50 199.20 49.49
  Q 200.55 48.94 201.93 48.94
  Z
  M 202.14 362.97
  Q 203.44 362.97 204.63 362.37
  C 234.70 347.13 263.92 327.71 288.03 304.53
  Q 300.09 292.94 309.59 277.55
  Q 319.90 260.84 322.45 241.97
  Q 323.23 236.20 323.05 210.53
  Q 322.78 170.31 323.06 129.01
  Q 323.07 126.52 321.30 125.93
  Q 283.82 113.43 228.27 95.06
  C 220.94 92.64 210.80 89.01 203.36 86.40
  Q 202.97 86.26 201.87 86.26
  Q 200.76 86.26 200.37 86.40
  C 192.94 89.03 182.80 92.68 175.48 95.11
  Q 119.96 113.59 82.51 126.17
  Q 80.74 126.76 80.76 129.25
  Q 81.12 170.55 80.93 210.77
  Q 80.80 236.44 81.59 242.21
  Q 84.18 261.07 94.52 277.76
  Q 104.05 293.13 116.13 304.70
  C 140.29 327.83 169.55 347.19 199.65 362.38
  Q 200.84 362.97 202.14 362.97
  Z"
/>
<path fill="#feffff" d="
  M 198.31 337.11
  Q 195.70 337.15 193.07 335.98
  Q 181.35 330.81 173.50 324.01
  Q 172.04 322.75 172.04 320.00
  Q 172.00 270.22 172.07 227.74
  Q 172.08 225.27 169.76 225.26
  Q 141.09 225.17 139.75 225.20
  Q 137.30 225.24 136.31 225.71
  A 2.28 2.28 0.0 0 0 135.03 227.74
  L 135.02 294.34
  A 0.77 0.77 0.0 0 1 133.78 294.95
  Q 123.33 286.83 115.17 277.34
  Q 111.15 272.65 109.56 269.71
  C 107.02 265.02 106.99 258.22 107.00 252.58
  Q 107.13 200.82 107.05 143.27
  A 2.33 2.33 0.0 0 1 108.67 141.05
  L 133.96 132.94
  A 0.83 0.82 -9.0 0 1 135.04 133.72
  L 135.04 191.25
  A 1.85 1.85 0.0 0 0 136.89 193.10
  L 169.88 193.10
  A 2.12 2.12 0.0 0 0 172.00 190.98
  L 172.00 121.34
  A 1.98 1.97 80.8 0 1 173.34 119.47
  Q 185.58 115.40 197.93 113.98
  A 0.88 0.88 0.0 0 1 198.92 114.85
  L 198.92 336.49
  A 0.62 0.62 0.0 0 1 198.31 337.11
  Z"
/>
<path fill="#feffff" d="
  M 212.34 336.68
  A 0.97 0.96 81.7 0 1 211.10 335.75
  L 211.10 114.66
  A 0.80 0.79 -84.4 0 1 212.05 113.88
  Q 219.13 115.26 227.89 118.32
  Q 235.64 121.03 298.20 141.85
  A 2.36 2.35 9.3 0 1 299.81 144.08
  L 299.81 176.63
  A 1.42 1.41 9.1 0 1 297.95 177.97
  L 246.78 161.14
  A 0.89 0.89 0.0 0 0 245.61 161.99
  L 245.61 198.68
  A 1.49 1.45 -64.9 0 0 245.93 199.60
  Q 247.15 201.09 250.51 201.07
  Q 271.23 201.00 285.50 201.02
  C 299.29 201.03 301.42 212.92 299.49 224.26
  C 297.69 234.75 289.44 235.70 280.50 235.99
  Q 278.26 236.07 249.47 236.19
  Q 246.88 236.20 245.79 238.02
  A 1.70 1.65 61.0 0 0 245.56 238.87
  Q 245.70 296.81 245.56 311.50
  C 245.55 313.13 244.55 314.65 243.28 315.84
  Q 233.68 324.83 219.62 333.36
  Q 215.80 335.67 212.34 336.68
  Z"
/>
<rect fill="#feffff" x="-11.28" y="-11.34" transform="translate(718.18,176.22) rotate(1.1)" width="22.56" height="22.68" rx="10.27"/>
<path fill="#feffff" d="
  M 486.40 198.91
  A 0.57 0.57 0.0 0 0 486.97 198.30
  Q 486.57 191.39 487.11 183.08
  Q 487.94 170.25 499.79 165.99
  Q 502.18 165.13 507.52 164.96
  Q 515.54 164.72 521.77 165.30
  A 1.08 1.08 0.0 0 1 522.75 166.46
  L 521.67 180.15
  A 0.78 0.77 -79.0 0 1 520.67 180.83
  C 514.88 179.03 505.63 178.93 505.11 187.35
  Q 504.78 192.80 504.99 198.07
  A 0.88 0.88 0.0 0 0 505.87 198.92
  L 521.95 198.92
  A 0.67 0.66 90.0 0 1 522.61 199.59
  L 522.61 213.11
  A 0.74 0.73 0.0 0 1 521.87 213.84
  L 505.57 213.84
  A 0.55 0.55 0.0 0 0 505.02 214.39
  L 505.02 268.33
  A 0.65 0.64 -90.0 0 1 504.38 268.98
  L 487.57 268.98
  A 0.61 0.61 0.0 0 1 486.96 268.37
  L 486.96 214.72
  A 0.90 0.90 0.0 0 0 486.06 213.82
  L 475.70 213.82
  A 0.70 0.69 90.0 0 1 475.01 213.12
  L 475.01 199.86
  A 0.95 0.95 0.0 0 1 475.96 198.91
  L 486.40 198.91
  Z"
/>
<path fill="#feffff" d="
  M 425.88 205.54
  A 0.31 0.30 69.5 0 0 426.39 205.78
  C 435.07 198.00 443.44 194.52 455.16 198.39
  C 464.76 201.56 468.70 210.89 469.01 220.80
  Q 469.62 240.41 469.48 268.28
  A 0.69 0.69 0.0 0 1 468.79 268.96
  L 452.34 268.96
  A 0.65 0.65 0.0 0 1 451.69 268.30
  Q 451.86 243.03 451.73 225.26
  C 451.70 220.05 450.59 215.30 445.15 213.33
  Q 435.48 209.82 427.63 216.76
  Q 426.00 218.21 425.97 220.00
  Q 425.78 231.05 425.79 268.05
  A 0.90 0.90 0.0 0 1 424.89 268.96
  L 408.88 268.96
  A 1.01 1.00 -90.0 0 1 407.88 267.95
  L 407.88 167.01
  A 1.01 1.01 0.0 0 1 408.89 166.00
  L 424.73 166.00
  A 1.15 1.15 0.0 0 1 425.88 167.15
  L 425.88 205.54
  Z"
/>
<path fill="#feffff" d="
  M 651.97 205.59
  A 0.31 0.30 69.3 0 0 652.48 205.83
  C 661.16 198.02 669.54 194.51 681.28 198.36
  C 690.91 201.52 694.87 210.85 695.21 220.78
  Q 695.86 240.42 695.79 268.33
  A 0.69 0.69 0.0 0 1 695.10 269.02
  L 678.62 269.05
  A 0.65 0.65 0.0 0 1 677.97 268.39
  Q 678.08 243.08 677.91 225.28
  C 677.87 220.07 676.75 215.31 671.29 213.35
  Q 661.60 209.86 653.75 216.82
  Q 652.12 218.28 652.10 220.07
  Q 651.93 231.14 652.03 268.20
  A 0.90 0.90 0.0 0 1 651.13 269.12
  L 635.09 269.15
  A 1.01 1.00 89.9 0 1 634.09 268.14
  L 633.86 167.04
  A 1.01 1.01 0.0 0 1 634.87 166.03
  L 650.73 165.99
  A 1.15 1.15 0.0 0 1 651.89 167.14
  L 651.97 205.59
  Z"
/>
<rect fill="#feffff" x="809.04" y="165.98" width="17.96" height="103.06" rx="1.10"/>
<path fill="#feffff" d="
  M 884.45 204.00
  A 0.36 0.36 0.0 0 0 885.04 203.73
  L 885.04 166.75
  A 0.74 0.74 0.0 0 1 885.78 166.01
  L 901.94 166.01
  A 1.08 1.08 0.0 0 1 903.02 167.09
  L 903.02 267.88
  A 1.20 1.19 90.0 0 1 901.83 269.08
  L 886.13 269.08
  A 1.15 1.15 0.0 0 1 884.98 267.93
  L 884.98 262.56
  A 0.36 0.36 0.0 0 0 884.36 262.31
  Q 874.71 272.00 860.49 270.01
  C 849.30 268.45 840.93 260.44 837.91 249.58
  C 834.16 236.11 835.13 219.88 843.59 208.12
  C 853.31 194.61 871.95 193.26 884.45 204.00
  Z
  M 884.99 218.99
  C 884.94 216.12 882.61 215.09 880.45 213.91
  C 868.24 207.21 857.63 215.10 855.47 227.56
  Q 855.20 229.11 854.97 234.39
  C 854.51 245.13 858.93 256.94 871.79 256.02
  Q 878.74 255.53 883.41 250.10
  Q 884.96 248.29 885.00 246.22
  Q 885.25 234.23 884.99 218.99
  Z"
/>
<path fill="#feffff" d="
  M 584.09 247.71
  A 1.08 1.06 79.3 0 1 585.20 248.48
  Q 588.05 258.32 599.61 257.73
  C 609.00 257.25 613.44 245.69 602.57 242.41
  Q 602.01 242.24 583.65 237.60
  C 576.22 235.73 571.29 230.32 570.15 222.64
  C 567.97 207.95 578.67 198.09 592.42 197.13
  Q 598.91 196.68 604.45 197.23
  C 614.79 198.25 623.29 205.80 624.12 216.41
  A 1.31 1.31 0.0 0 1 622.92 217.82
  L 610.01 218.89
  A 1.38 1.37 -8.3 0 1 608.55 217.81
  Q 607.21 211.52 601.08 210.27
  C 596.12 209.26 589.09 210.08 587.25 215.50
  C 584.87 222.53 592.39 224.42 598.07 225.91
  Q 604.99 227.72 612.93 229.59
  C 621.50 231.61 626.29 237.28 626.40 246.46
  C 626.57 259.54 617.96 269.33 604.56 270.00
  Q 594.34 270.50 588.42 269.32
  Q 572.63 266.15 567.90 250.60
  A 1.27 1.26 -10.9 0 1 569.01 248.97
  L 584.09 247.71
  Z"
/>
<path fill="#feffff" d="
  M 754.03 239.84
  C 755.00 249.07 759.32 255.62 769.12 256.31
  Q 779.17 257.03 783.89 248.14
  A 0.95 0.94 20.4 0 1 784.95 247.66
  L 799.13 250.98
  A 0.65 0.64 13.5 0 1 799.61 251.75
  Q 798.98 254.45 797.37 256.64
  Q 786.88 270.88 768.74 270.17
  C 749.15 269.41 737.01 256.27 735.85 237.50
  C 734.89 221.78 739.98 204.17 756.75 198.77
  Q 762.45 196.94 770.70 197.12
  C 785.03 197.43 795.46 204.52 798.93 219.10
  Q 801.10 228.28 800.68 237.70
  A 1.38 1.38 0.0 0 1 799.30 239.02
  L 754.77 239.02
  A 0.74 0.74 0.0 0 0 754.03 239.84
  Z
  M 754.70 226.69
  L 782.60 226.73
  A 0.25 0.25 0.0 0 0 782.85 226.48
  L 782.85 226.20
  A 15.93 14.20 -89.9 0 0 768.67 210.25
  L 768.67 210.25
  A 15.93 14.20 -89.9 0 0 754.45 226.16
  L 754.45 226.44
  A 0.25 0.25 0.0 0 0 754.70 226.69
  Z"
/>
<rect fill="#feffff" x="709.03" y="197.96" width="17.98" height="71.14" rx="1.00"/>
<rect fill="#feffff" x="-17.68" y="-7.54" transform="translate(542.35,231.48) rotate(-0.1)" width="35.36" height="15.08" rx="0.93"/>
</svg>
